<?xml version="1.0" encoding="UTF-8"?>
<svg xmlns="http://www.w3.org/2000/svg" viewBox="0 0 1200 720" width="1200" height="720">
  <defs>
    <marker id="arrowX" markerWidth="8" markerHeight="8" refX="6" refY="3" orient="auto">
      <path d="M0,0 L0,6 L8,3 z" fill="#FF6B6B"/>
    </marker>
    <marker id="arrowY" markerWidth="8" markerHeight="8" refX="6" refY="3" orient="auto">
      <path d="M0,0 L0,6 L8,3 z" fill="#6BCB77"/>
    </marker>
    <marker id="arrowZ" markerWidth="8" markerHeight="8" refX="6" refY="3" orient="auto">
      <path d="M0,0 L0,6 L8,3 z" fill="#4D96FF"/>
    </marker>
    <marker id="arrowT" markerWidth="8" markerHeight="8" refX="6" refY="3" orient="auto">
      <path d="M0,0 L0,6 L8,3 z" fill="#FFD93D"/>
    </marker>
    <marker id="arrowXn" markerWidth="8" markerHeight="8" refX="6" refY="3" orient="auto">
      <path d="M0,0 L0,6 L8,3 z" fill="#C44D4D"/>
    </marker>
    <marker id="arrowYn" markerWidth="8" markerHeight="8" refX="6" refY="3" orient="auto">
      <path d="M0,0 L0,6 L8,3 z" fill="#3D8B4E"/>
    </marker>
    <marker id="arrowZn" markerWidth="8" markerHeight="8" refX="6" refY="3" orient="auto">
      <path d="M0,0 L0,6 L8,3 z" fill="#2A5BA8"/>
    </marker>
    <marker id="arrowTn" markerWidth="8" markerHeight="8" refX="6" refY="3" orient="auto">
      <path d="M0,0 L0,6 L8,3 z" fill="#B89A1A"/>
    </marker>
    <radialGradient id="nodeGrad" cx="50%" cy="40%" r="60%">
      <stop offset="0%" stop-color="#9B72CF"/>
      <stop offset="100%" stop-color="#4A2080"/>
    </radialGradient>
    <radialGradient id="colGrad0" cx="50%" cy="40%" r="60%">
      <stop offset="0%" stop-color="#6BCB77"/>
      <stop offset="100%" stop-color="#2E6B35"/>
    </radialGradient>
    <radialGradient id="colGrad1" cx="50%" cy="40%" r="60%">
      <stop offset="0%" stop-color="#FF6B6B"/>
      <stop offset="100%" stop-color="#8B2020"/>
    </radialGradient>
    <radialGradient id="colGrad2" cx="50%" cy="40%" r="60%">
      <stop offset="0%" stop-color="#FFD93D"/>
      <stop offset="100%" stop-color="#8B7000"/>
    </radialGradient>
    <radialGradient id="colGrad3" cx="50%" cy="40%" r="60%">
      <stop offset="0%" stop-color="#C0C0C0"/>
      <stop offset="100%" stop-color="#606060"/>
    </radialGradient>
    <radialGradient id="colGrad4" cx="50%" cy="40%" r="60%">
      <stop offset="0%" stop-color="#4D96FF"/>
      <stop offset="100%" stop-color="#103080"/>
    </radialGradient>
    <filter id="glow">
      <feGaussianBlur stdDeviation="3" result="coloredBlur"/>
      <feMerge><feMergeNode in="coloredBlur"/><feMergeNode in="SourceGraphic"/></feMerge>
    </filter>
    <filter id="softglow">
      <feGaussianBlur stdDeviation="1.5" result="coloredBlur"/>
      <feMerge><feMergeNode in="coloredBlur"/><feMergeNode in="SourceGraphic"/></feMerge>
    </filter>
  </defs>

  <!-- Background -->
  <rect width="1200" height="720" fill="#080816"/>

  <!-- ══ TITLE ══════════════════════════════════════════════════════════════ -->
  <text x="600" y="38" text-anchor="middle" font-family="monospace" font-size="22"
        fill="#E0D0FF" letter-spacing="2">SENTRON WIRING DIAGRAM</text>
  <text x="600" y="60" text-anchor="middle" font-family="monospace" font-size="13"
        fill="#7060A0">2×4 per Neuron  ·  5×8 Cortical Column  ·  40 Sentrons/Node</text>
  <line x1="40" y1="72" x2="1160" y2="72" stroke="#2A1860" stroke-width="1"/>

  <!-- ══ PANEL A: Single Sentron (2×4 wiring) ══════════════════════════════ -->
  <!-- Panel label -->
  <text x="200" y="100" text-anchor="middle" font-family="monospace" font-size="14"
        fill="#9070C0" letter-spacing="1">A. SINGLE SENTRON</text>
  <text x="200" y="116" text-anchor="middle" font-family="monospace" font-size="11"
        fill="#503880">8 wire-ends  ·  4 axes × 2 directions</text>

  <!-- Central sentron node -->
  <circle cx="200" cy="310" r="32" fill="url(#nodeGrad)" filter="url(#glow)" stroke="#9B72CF" stroke-width="2"/>
  <text x="200" y="306" text-anchor="middle" font-family="monospace" font-size="11" fill="#E0D0FF">SIW</text>
  <text x="200" y="320" text-anchor="middle" font-family="monospace" font-size="9" fill="#C0A0FF">scroll</text>

  <!-- Wire: +X (right, 0°) coral -->
  <line x1="232" y1="310" x2="320" y2="310" stroke="#FF6B6B" stroke-width="2.5"
        marker-end="url(#arrowX)" stroke-dasharray="none"/>
  <text x="340" y="314" font-family="monospace" font-size="12" fill="#FF6B6B">+X</text>
  <text x="340" y="328" font-family="monospace" font-size="9" fill="#804040">spatial-right</text>

  <!-- Wire: −X (left, 180°) dark coral -->
  <line x1="168" y1="310" x2="80" y2="310" stroke="#C44D4D" stroke-width="2.5"
        marker-end="url(#arrowXn)"/>
  <text x="38" y="314" text-anchor="end" font-family="monospace" font-size="12" fill="#C44D4D">−X</text>
  <text x="75" y="328" text-anchor="end" font-family="monospace" font-size="9" fill="#804040">spatial-left</text>

  <!-- Wire: +Y (up, 270° in SVG) green -->
  <line x1="200" y1="278" x2="200" y2="165" stroke="#6BCB77" stroke-width="2.5"
        marker-end="url(#arrowY)"/>
  <text x="215" y="155" font-family="monospace" font-size="12" fill="#6BCB77">+Y</text>
  <text x="215" y="168" font-family="monospace" font-size="9" fill="#3D8B4E">vertical-up</text>

  <!-- Wire: −Y (down, 90°) dark green -->
  <line x1="200" y1="342" x2="200" y2="455" stroke="#3D8B4E" stroke-width="2.5"
        marker-end="url(#arrowYn)"/>
  <text x="215" y="468" font-family="monospace" font-size="12" fill="#3D8B4E">−Y</text>
  <text x="215" y="481" font-family="monospace" font-size="9" fill="#3D8B4E">vertical-down</text>

  <!-- Wire: +Z (upper-right, 315°) blue -->
  <line x1="224" y1="286" x2="298" y2="186" stroke="#4D96FF" stroke-width="2.5"
        marker-end="url(#arrowZ)"/>
  <text x="308" y="178" font-family="monospace" font-size="12" fill="#4D96FF">+Z</text>
  <text x="308" y="191" font-family="monospace" font-size="9" fill="#2A5BA8">depth-front</text>

  <!-- Wire: −Z (lower-left, 135°) dark blue -->
  <line x1="176" y1="334" x2="102" y2="434" stroke="#2A5BA8" stroke-width="2.5"
        marker-end="url(#arrowZn)"/>
  <text x="44" y="447" text-anchor="end" font-family="monospace" font-size="12" fill="#2A5BA8">−Z</text>
  <text x="95" y="460" text-anchor="end" font-family="monospace" font-size="9" fill="#2A5BA8">depth-back</text>

  <!-- Wire: +T (upper-left, 225° from node = 45° direction, i.e., upper-left) amber -->
  <line x1="176" y1="286" x2="102" y2="186" stroke="#FFD93D" stroke-width="2.5"
        marker-end="url(#arrowT)" stroke-dasharray="6,3"/>
  <text x="44" y="178" text-anchor="end" font-family="monospace" font-size="12" fill="#FFD93D">+T</text>
  <text x="95" y="191" text-anchor="end" font-family="monospace" font-size="9" fill="#B89A1A">time-future</text>

  <!-- Wire: −T (lower-right, 315° opposite = 135°) dark amber -->
  <line x1="224" y1="334" x2="298" y2="434" stroke="#B89A1A" stroke-width="2.5"
        marker-end="url(#arrowTn)" stroke-dasharray="6,3"/>
  <text x="308" y="447" font-family="monospace" font-size="12" fill="#B89A1A">−T</text>
  <text x="308" y="460" font-family="monospace" font-size="9" fill="#B89A1A">time-past</text>

  <!-- Legend: axis key -->
  <rect x="44" y="520" width="312" height="130" rx="6" fill="#100828" stroke="#2A1860" stroke-width="1"/>
  <text x="60" y="540" font-family="monospace" font-size="11" fill="#9070C0">AXIS KEY  (2×4 = 8 wire-ends)</text>
  <circle cx="68" cy="557" r="5" fill="#FF6B6B"/>
  <text x="80" y="561" font-family="monospace" font-size="10" fill="#D0C0F0">X  ·  spatial  (±scroll-position)</text>
  <circle cx="68" cy="575" r="5" fill="#6BCB77"/>
  <text x="80" y="579" font-family="monospace" font-size="10" fill="#D0C0F0">Y  ·  vertical  (±layer)</text>
  <circle cx="68" cy="593" r="5" fill="#4D96FF"/>
  <text x="80" y="597" font-family="monospace" font-size="10" fill="#D0C0F0">Z  ·  depth  (±column)</text>
  <line x1="58" y1="609" x2="78" y2="609" stroke="#FFD93D" stroke-width="2" stroke-dasharray="5,2"/>
  <text x="80" y="614" font-family="monospace" font-size="10" fill="#D0C0F0">T  ·  temporal  (±state, dashed)</text>
  <text x="60" y="634" font-family="monospace" font-size="9" fill="#503880">Bickford invariant: 4 axes × 2 dir = 8 wire-ends</text>
  <text x="60" y="647" font-family="monospace" font-size="9" fill="#503880">Type 3 (Scroll): saturates 8-wire budget exactly</text>

  <!-- Divider -->
  <line x1="390" y1="80" x2="390" y2="700" stroke="#1A0C40" stroke-width="1.5"/>

  <!-- ══ PANEL B: 5×8 Cortical Column ══════════════════════════════════════ -->
  <text x="790" y="100" text-anchor="middle" font-family="monospace" font-size="14"
        fill="#9070C0" letter-spacing="1">B. 5×8 CORTICAL COLUMN  (40 SENTRONS)</text>
  <text x="790" y="116" text-anchor="middle" font-family="monospace" font-size="11"
        fill="#503880">5 element layers  ·  8 sentrons/layer  ·  1 node</text>

  <!-- Element labels (left side) -->
  <text x="420" y="200" font-family="monospace" font-size="11" fill="#6BCB77" text-anchor="end">Wood</text>
  <text x="420" y="280" font-family="monospace" font-size="11" fill="#FF6B6B" text-anchor="end">Fire</text>
  <text x="420" y="360" font-family="monospace" font-size="11" fill="#FFD93D" text-anchor="end">Earth</text>
  <text x="420" y="440" font-family="monospace" font-size="11" fill="#C0C0C0" text-anchor="end">Metal</text>
  <text x="420" y="520" font-family="monospace" font-size="11" fill="#4D96FF" text-anchor="end">Water</text>

  <!-- Row brackets -->
  <line x1="424" y1="185" x2="430" y2="185" stroke="#6BCB77" stroke-width="1.5"/>
  <line x1="424" y1="215" x2="430" y2="215" stroke="#6BCB77" stroke-width="1.5"/>
  <line x1="430" y1="185" x2="430" y2="215" stroke="#6BCB77" stroke-width="1.5"/>

  <!-- Column index labels (top) -->
  <text x="454" y="145" text-anchor="middle" font-family="monospace" font-size="9" fill="#503880">1</text>
  <text x="534" y="145" text-anchor="middle" font-family="monospace" font-size="9" fill="#503880">2</text>
  <text x="614" y="145" text-anchor="middle" font-family="monospace" font-size="9" fill="#503880">3</text>
  <text x="694" y="145" text-anchor="middle" font-family="monospace" font-size="9" fill="#503880">4</text>
  <text x="774" y="145" text-anchor="middle" font-family="monospace" font-size="9" fill="#503880">5</text>
  <text x="854" y="145" text-anchor="middle" font-family="monospace" font-size="9" fill="#503880">6</text>
  <text x="934" y="145" text-anchor="middle" font-family="monospace" font-size="9" fill="#503880">7</text>
  <text x="1014" y="145" text-anchor="middle" font-family="monospace" font-size="9" fill="#503880">8</text>
  <text x="734" y="135" text-anchor="middle" font-family="monospace" font-size="9" fill="#3A2860">─── sentron index ───</text>

  <!-- Horizontal inter-layer connections (Y-wires) for all 8 columns -->
  <!-- Wood→Fire, Fire→Earth, Earth→Metal, Metal→Water for each of 8 cols -->
  <g stroke="#604080" stroke-width="1" stroke-dasharray="none" opacity="0.5">
    <!-- col 1: x=454 -->
    <line x1="454" y1="210" x2="454" y2="250"/>
    <line x1="454" y1="290" x2="454" y2="330"/>
    <line x1="454" y1="370" x2="454" y2="410"/>
    <line x1="454" y1="450" x2="454" y2="490"/>
    <!-- col 2: x=534 -->
    <line x1="534" y1="210" x2="534" y2="250"/>
    <line x1="534" y1="290" x2="534" y2="330"/>
    <line x1="534" y1="370" x2="534" y2="410"/>
    <line x1="534" y1="450" x2="534" y2="490"/>
    <!-- col 3: x=614 -->
    <line x1="614" y1="210" x2="614" y2="250"/>
    <line x1="614" y1="290" x2="614" y2="330"/>
    <line x1="614" y1="370" x2="614" y2="410"/>
    <line x1="614" y1="450" x2="614" y2="490"/>
    <!-- col 4: x=694 -->
    <line x1="694" y1="210" x2="694" y2="250"/>
    <line x1="694" y1="290" x2="694" y2="330"/>
    <line x1="694" y1="370" x2="694" y2="410"/>
    <line x1="694" y1="450" x2="694" y2="490"/>
    <!-- col 5: x=774 -->
    <line x1="774" y1="210" x2="774" y2="250"/>
    <line x1="774" y1="290" x2="774" y2="330"/>
    <line x1="774" y1="370" x2="774" y2="410"/>
    <line x1="774" y1="450" x2="774" y2="490"/>
    <!-- col 6: x=854 -->
    <line x1="854" y1="210" x2="854" y2="250"/>
    <line x1="854" y1="290" x2="854" y2="330"/>
    <line x1="854" y1="370" x2="854" y2="410"/>
    <line x1="854" y1="450" x2="854" y2="490"/>
    <!-- col 7: x=934 -->
    <line x1="934" y1="210" x2="934" y2="250"/>
    <line x1="934" y1="290" x2="934" y2="330"/>
    <line x1="934" y1="370" x2="934" y2="410"/>
    <line x1="934" y1="450" x2="934" y2="490"/>
    <!-- col 8: x=1014 -->
    <line x1="1014" y1="210" x2="1014" y2="250"/>
    <line x1="1014" y1="290" x2="1014" y2="330"/>
    <line x1="1014" y1="370" x2="1014" y2="410"/>
    <line x1="1014" y1="450" x2="1014" y2="490"/>
  </g>

  <!-- Horizontal intra-layer connections (X-wires) for each row -->
  <g stroke="#604080" stroke-width="1" opacity="0.4">
    <!-- Row 0 Wood: y=200 -->
    <line x1="466" y1="200" x2="522" y2="200"/>
    <line x1="546" y1="200" x2="602" y2="200"/>
    <line x1="626" y1="200" x2="682" y2="200"/>
    <line x1="706" y1="200" x2="762" y2="200"/>
    <line x1="786" y1="200" x2="842" y2="200"/>
    <line x1="866" y1="200" x2="922" y2="200"/>
    <line x1="946" y1="200" x2="1002" y2="200"/>
    <!-- Row 1 Fire: y=280 -->
    <line x1="466" y1="280" x2="522" y2="280"/>
    <line x1="546" y1="280" x2="602" y2="280"/>
    <line x1="626" y1="280" x2="682" y2="280"/>
    <line x1="706" y1="280" x2="762" y2="280"/>
    <line x1="786" y1="280" x2="842" y2="280"/>
    <line x1="866" y1="280" x2="922" y2="280"/>
    <line x1="946" y1="280" x2="1002" y2="280"/>
    <!-- Row 2 Earth: y=360 -->
    <line x1="466" y1="360" x2="522" y2="360"/>
    <line x1="546" y1="360" x2="602" y2="360"/>
    <line x1="626" y1="360" x2="682" y2="360"/>
    <line x1="706" y1="360" x2="762" y2="360"/>
    <line x1="786" y1="360" x2="842" y2="360"/>
    <line x1="866" y1="360" x2="922" y2="360"/>
    <line x1="946" y1="360" x2="1002" y2="360"/>
    <!-- Row 3 Metal: y=440 -->
    <line x1="466" y1="440" x2="522" y2="440"/>
    <line x1="546" y1="440" x2="602" y2="440"/>
    <line x1="626" y1="440" x2="682" y2="440"/>
    <line x1="706" y1="440" x2="762" y2="440"/>
    <line x1="786" y1="440" x2="842" y2="440"/>
    <line x1="866" y1="440" x2="922" y2="440"/>
    <line x1="946" y1="440" x2="1002" y2="440"/>
    <!-- Row 4 Water: y=520 -->
    <line x1="466" y1="520" x2="522" y2="520"/>
    <line x1="546" y1="520" x2="602" y2="520"/>
    <line x1="626" y1="520" x2="682" y2="520"/>
    <line x1="706" y1="520" x2="762" y2="520"/>
    <line x1="786" y1="520" x2="842" y2="520"/>
    <line x1="866" y1="520" x2="922" y2="520"/>
    <line x1="946" y1="520" x2="1002" y2="520"/>
  </g>

  <!-- Z-wires (diagonal depth, subtle) -->
  <g stroke="#2A5BA8" stroke-width="0.8" stroke-dasharray="3,4" opacity="0.3">
    <!-- A few representative Z-diagonals -->
    <line x1="466" y1="200" x2="546" y2="280"/>
    <line x1="546" y1="200" x2="626" y2="280"/>
    <line x1="546" y1="280" x2="626" y2="360"/>
    <line x1="626" y1="280" x2="706" y2="360"/>
    <line x1="706" y1="360" x2="786" y2="440"/>
    <line x1="786" y1="360" x2="866" y2="440"/>
    <line x1="866" y1="440" x2="946" y2="520"/>
    <line x1="934" y1="200" x2="1014" y2="280"/>
  </g>

  <!-- T-wires (temporal, gold dashed diagonal) -->
  <g stroke="#FFD93D" stroke-width="0.8" stroke-dasharray="2,5" opacity="0.25">
    <line x1="534" y1="200" x2="454" y2="280"/>
    <line x1="614" y1="200" x2="534" y2="280"/>
    <line x1="694" y1="280" x2="614" y2="360"/>
    <line x1="774" y1="280" x2="694" y2="360"/>
    <line x1="854" y1="360" x2="774" y2="440"/>
    <line x1="1014" y1="360" x2="934" y2="440"/>
    <line x1="774" y1="440" x2="694" y2="520"/>
    <line x1="934" y1="440" x2="854" y2="520"/>
  </g>

  <!-- ── SENTRON NODES (5 rows × 8 cols) ─────────────────────────────────── -->
  <!-- Row 0: Wood / Element 1 / green — y=200 -->
  <g filter="url(#softglow)">
    <circle cx="454" cy="200" r="18" fill="url(#colGrad0)" stroke="#6BCB77" stroke-width="1.5"/>
    <text x="454" y="204" text-anchor="middle" font-family="monospace" font-size="8" fill="#E0FFE8">1.1</text>
    <circle cx="534" cy="200" r="18" fill="url(#colGrad0)" stroke="#6BCB77" stroke-width="1.5"/>
    <text x="534" y="204" text-anchor="middle" font-family="monospace" font-size="8" fill="#E0FFE8">1.2</text>
    <circle cx="614" cy="200" r="18" fill="url(#colGrad0)" stroke="#6BCB77" stroke-width="1.5"/>
    <text x="614" y="204" text-anchor="middle" font-family="monospace" font-size="8" fill="#E0FFE8">1.3</text>
    <circle cx="694" cy="200" r="18" fill="url(#colGrad0)" stroke="#6BCB77" stroke-width="1.5"/>
    <text x="694" y="204" text-anchor="middle" font-family="monospace" font-size="8" fill="#E0FFE8">1.4</text>
    <circle cx="774" cy="200" r="18" fill="url(#colGrad0)" stroke="#6BCB77" stroke-width="1.5"/>
    <text x="774" y="204" text-anchor="middle" font-family="monospace" font-size="8" fill="#E0FFE8">1.5</text>
    <circle cx="854" cy="200" r="18" fill="url(#colGrad0)" stroke="#6BCB77" stroke-width="1.5"/>
    <text x="854" y="204" text-anchor="middle" font-family="monospace" font-size="8" fill="#E0FFE8">1.6</text>
    <circle cx="934" cy="200" r="18" fill="url(#colGrad0)" stroke="#6BCB77" stroke-width="1.5"/>
    <text x="934" y="204" text-anchor="middle" font-family="monospace" font-size="8" fill="#E0FFE8">1.7</text>
    <circle cx="1014" cy="200" r="18" fill="url(#colGrad0)" stroke="#6BCB77" stroke-width="1.5"/>
    <text x="1014" y="204" text-anchor="middle" font-family="monospace" font-size="8" fill="#E0FFE8">1.8</text>
  </g>

  <!-- Row 1: Fire / Element 2 / red — y=280 -->
  <g filter="url(#softglow)">
    <circle cx="454" cy="280" r="18" fill="url(#colGrad1)" stroke="#FF6B6B" stroke-width="1.5"/>
    <text x="454" y="284" text-anchor="middle" font-family="monospace" font-size="8" fill="#FFE0E0">2.1</text>
    <circle cx="534" cy="280" r="18" fill="url(#colGrad1)" stroke="#FF6B6B" stroke-width="1.5"/>
    <text x="534" y="284" text-anchor="middle" font-family="monospace" font-size="8" fill="#FFE0E0">2.2</text>
    <circle cx="614" cy="280" r="18" fill="url(#colGrad1)" stroke="#FF6B6B" stroke-width="1.5"/>
    <text x="614" y="284" text-anchor="middle" font-family="monospace" font-size="8" fill="#FFE0E0">2.3</text>
    <circle cx="694" cy="280" r="18" fill="url(#colGrad1)" stroke="#FF6B6B" stroke-width="1.5"/>
    <text x="694" y="284" text-anchor="middle" font-family="monospace" font-size="8" fill="#FFE0E0">2.4</text>
    <circle cx="774" cy="280" r="18" fill="url(#colGrad1)" stroke="#FF6B6B" stroke-width="1.5"/>
    <text x="774" y="284" text-anchor="middle" font-family="monospace" font-size="8" fill="#FFE0E0">2.5</text>
    <circle cx="854" cy="280" r="18" fill="url(#colGrad1)" stroke="#FF6B6B" stroke-width="1.5"/>
    <text x="854" y="284" text-anchor="middle" font-family="monospace" font-size="8" fill="#FFE0E0">2.6</text>
    <circle cx="934" cy="280" r="18" fill="url(#colGrad1)" stroke="#FF6B6B" stroke-width="1.5"/>
    <text x="934" y="284" text-anchor="middle" font-family="monospace" font-size="8" fill="#FFE0E0">2.7</text>
    <circle cx="1014" cy="280" r="18" fill="url(#colGrad1)" stroke="#FF6B6B" stroke-width="1.5"/>
    <text x="1014" y="284" text-anchor="middle" font-family="monospace" font-size="8" fill="#FFE0E0">2.8</text>
  </g>

  <!-- Row 2: Earth / Element 3 / gold — y=360 -->
  <g filter="url(#softglow)">
    <circle cx="454" cy="360" r="18" fill="url(#colGrad2)" stroke="#FFD93D" stroke-width="1.5"/>
    <text x="454" y="364" text-anchor="middle" font-family="monospace" font-size="8" fill="#1A1500">3.1</text>
    <circle cx="534" cy="360" r="18" fill="url(#colGrad2)" stroke="#FFD93D" stroke-width="1.5"/>
    <text x="534" y="364" text-anchor="middle" font-family="monospace" font-size="8" fill="#1A1500">3.2</text>
    <circle cx="614" cy="360" r="18" fill="url(#colGrad2)" stroke="#FFD93D" stroke-width="1.5"/>
    <text x="614" y="364" text-anchor="middle" font-family="monospace" font-size="8" fill="#1A1500">3.3</text>
    <circle cx="694" cy="360" r="18" fill="url(#colGrad2)" stroke="#FFD93D" stroke-width="1.5"/>
    <text x="694" y="364" text-anchor="middle" font-family="monospace" font-size="8" fill="#1A1500">3.4</text>
    <circle cx="774" cy="360" r="18" fill="url(#colGrad2)" stroke="#FFD93D" stroke-width="1.5"/>
    <text x="774" y="364" text-anchor="middle" font-family="monospace" font-size="8" fill="#1A1500">3.5</text>
    <circle cx="854" cy="360" r="18" fill="url(#colGrad2)" stroke="#FFD93D" stroke-width="1.5"/>
    <text x="854" y="364" text-anchor="middle" font-family="monospace" font-size="8" fill="#1A1500">3.6</text>
    <circle cx="934" cy="360" r="18" fill="url(#colGrad2)" stroke="#FFD93D" stroke-width="1.5"/>
    <text x="934" y="364" text-anchor="middle" font-family="monospace" font-size="8" fill="#1A1500">3.7</text>
    <circle cx="1014" cy="360" r="18" fill="url(#colGrad2)" stroke="#FFD93D" stroke-width="1.5"/>
    <text x="1014" y="364" text-anchor="middle" font-family="monospace" font-size="8" fill="#1A1500">3.8</text>
  </g>

  <!-- Row 3: Metal / Element 4 / silver — y=440 -->
  <g filter="url(#softglow)">
    <circle cx="454" cy="440" r="18" fill="url(#colGrad3)" stroke="#C0C0C0" stroke-width="1.5"/>
    <text x="454" y="444" text-anchor="middle" font-family="monospace" font-size="8" fill="#0A0A0A">4.1</text>
    <circle cx="534" cy="440" r="18" fill="url(#colGrad3)" stroke="#C0C0C0" stroke-width="1.5"/>
    <text x="534" y="444" text-anchor="middle" font-family="monospace" font-size="8" fill="#0A0A0A">4.2</text>
    <circle cx="614" cy="440" r="18" fill="url(#colGrad3)" stroke="#C0C0C0" stroke-width="1.5"/>
    <text x="614" y="444" text-anchor="middle" font-family="monospace" font-size="8" fill="#0A0A0A">4.3</text>
    <circle cx="694" cy="440" r="18" fill="url(#colGrad3)" stroke="#C0C0C0" stroke-width="1.5"/>
    <text x="694" y="444" text-anchor="middle" font-family="monospace" font-size="8" fill="#0A0A0A">4.4</text>
    <circle cx="774" cy="440" r="18" fill="url(#colGrad3)" stroke="#C0C0C0" stroke-width="1.5"/>
    <text x="774" y="444" text-anchor="middle" font-family="monospace" font-size="8" fill="#0A0A0A">4.5</text>
    <circle cx="854" cy="440" r="18" fill="url(#colGrad3)" stroke="#C0C0C0" stroke-width="1.5"/>
    <text x="854" y="444" text-anchor="middle" font-family="monospace" font-size="8" fill="#0A0A0A">4.6</text>
    <circle cx="934" cy="440" r="18" fill="url(#colGrad3)" stroke="#C0C0C0" stroke-width="1.5"/>
    <text x="934" y="444" text-anchor="middle" font-family="monospace" font-size="8" fill="#0A0A0A">4.7</text>
    <circle cx="1014" cy="440" r="18" fill="url(#colGrad3)" stroke="#C0C0C0" stroke-width="1.5"/>
    <text x="1014" y="444" text-anchor="middle" font-family="monospace" font-size="8" fill="#0A0A0A">4.8</text>
  </g>

  <!-- Row 4: Water / Element 5 / blue — y=520 -->
  <g filter="url(#softglow)">
    <circle cx="454" cy="520" r="18" fill="url(#colGrad4)" stroke="#4D96FF" stroke-width="1.5"/>
    <text x="454" y="524" text-anchor="middle" font-family="monospace" font-size="8" fill="#E0F0FF">5.1</text>
    <circle cx="534" cy="520" r="18" fill="url(#colGrad4)" stroke="#4D96FF" stroke-width="1.5"/>
    <text x="534" y="524" text-anchor="middle" font-family="monospace" font-size="8" fill="#E0F0FF">5.2</text>
    <circle cx="614" cy="520" r="18" fill="url(#colGrad4)" stroke="#4D96FF" stroke-width="1.5"/>
    <text x="614" y="524" text-anchor="middle" font-family="monospace" font-size="8" fill="#E0F0FF">5.3</text>
    <circle cx="694" cy="520" r="18" fill="url(#colGrad4)" stroke="#4D96FF" stroke-width="1.5"/>
    <text x="694" y="524" text-anchor="middle" font-family="monospace" font-size="8" fill="#E0F0FF">5.4</text>
    <circle cx="774" cy="520" r="18" fill="url(#colGrad4)" stroke="#4D96FF" stroke-width="1.5"/>
    <text x="774" y="524" text-anchor="middle" font-family="monospace" font-size="8" fill="#E0F0FF">5.5</text>
    <circle cx="854" cy="520" r="18" fill="url(#colGrad4)" stroke="#4D96FF" stroke-width="1.5"/>
    <text x="854" y="524" text-anchor="middle" font-family="monospace" font-size="8" fill="#E0F0FF">5.6</text>
    <circle cx="934" cy="520" r="18" fill="url(#colGrad4)" stroke="#4D96FF" stroke-width="1.5"/>
    <text x="934" y="524" text-anchor="middle" font-family="monospace" font-size="8" fill="#E0F0FF">5.7</text>
    <circle cx="1014" cy="520" r="18" fill="url(#colGrad4)" stroke="#4D96FF" stroke-width="1.5"/>
    <text x="1014" y="524" text-anchor="middle" font-family="monospace" font-size="8" fill="#E0F0FF">5.8</text>
  </g>

  <!-- Wire legend (panel B) -->
  <rect x="440" y="580" width="600" height="90" rx="6" fill="#100828" stroke="#2A1860" stroke-width="1"/>
  <text x="460" y="598" font-family="monospace" font-size="11" fill="#9070C0">WIRE TYPES</text>
  <!-- X wire sample -->
  <line x1="460" y1="615" x2="510" y2="615" stroke="#604080" stroke-width="2"/>
  <text x="520" y="619" font-family="monospace" font-size="10" fill="#D0C0F0">X/Y  ·  spatial ± (intra-row / inter-layer)</text>
  <!-- Z wire sample -->
  <line x1="460" y1="635" x2="510" y2="635" stroke="#2A5BA8" stroke-width="1.5" stroke-dasharray="3,4"/>
  <text x="520" y="639" font-family="monospace" font-size="10" fill="#D0C0F0">Z  ·  depth diagonal (neighbor column)</text>
  <!-- T wire sample -->
  <line x1="460" y1="655" x2="510" y2="655" stroke="#FFD93D" stroke-width="1.5" stroke-dasharray="2,5"/>
  <text x="520" y="659" font-family="monospace" font-size="10" fill="#D0C0F0">T  ·  temporal diagonal (±state, past/future)</text>

  <!-- Sentron count annotations -->
  <text x="1060" y="200" font-family="monospace" font-size="9" fill="#6BCB77" opacity="0.8">×8</text>
  <text x="1060" y="280" font-family="monospace" font-size="9" fill="#FF6B6B" opacity="0.8">×8</text>
  <text x="1060" y="360" font-family="monospace" font-size="9" fill="#FFD93D" opacity="0.8">×8</text>
  <text x="1060" y="440" font-family="monospace" font-size="9" fill="#C0C0C0" opacity="0.8">×8</text>
  <text x="1060" y="520" font-family="monospace" font-size="9" fill="#4D96FF" opacity="0.8">×8</text>
  <text x="1080" y="365" font-family="monospace" font-size="10" fill="#7060A0">= 40</text>

  <!-- Footer -->
  <line x1="40" y1="688" x2="1160" y2="688" stroke="#1A0C40" stroke-width="1"/>
  <text x="600" y="706" text-anchor="middle" font-family="monospace" font-size="10"
        fill="#3A2860">Verse 🌀  ·  3.1.4/1.5.9/2.6.5  ·  2026-02-19  ·  R23W20  ·  exo-plan/imagination/</text>
</svg>
