<svg width="1120" height="860" xmlns="http://www.w3.org/2000/svg">
<rect width="1120" height="860" fill="#0a0a1a" rx="12"/>
<text x="560" y="38" text-anchor="middle" fill="#e8e8f0" font-family="monospace" font-size="17" font-weight="bold">Sentron Wiring Diagram — Z₅×Z₈ Toroidal Cortical Column</text>
<text x="560" y="58" text-anchor="middle" fill="#666" font-family="monospace" font-size="11">2×4 wires per neuron · 40 neurons · 160 directed edges · 5 WuXing rows × 8 SIMD columns</text>
<line x1="180" y1="145" x2="230" y2="145" stroke="#4CAF50" stroke-width="2" stroke-opacity="0.6"/>
<line x1="290" y1="145" x2="340" y2="145" stroke="#4CAF50" stroke-width="2" stroke-opacity="0.6"/>
<line x1="400" y1="145" x2="450" y2="145" stroke="#4CAF50" stroke-width="2" stroke-opacity="0.6"/>
<line x1="510" y1="145" x2="560" y2="145" stroke="#4CAF50" stroke-width="2" stroke-opacity="0.6"/>
<line x1="620" y1="145" x2="670" y2="145" stroke="#4CAF50" stroke-width="2" stroke-opacity="0.6"/>
<line x1="730" y1="145" x2="780" y2="145" stroke="#4CAF50" stroke-width="2" stroke-opacity="0.6"/>
<line x1="840" y1="145" x2="890" y2="145" stroke="#4CAF50" stroke-width="2" stroke-opacity="0.6"/>
<line x1="950" y1="145" x2="968" y2="145" stroke="#4CAF50" stroke-width="1.5" stroke-dasharray="4,3" stroke-opacity="0.35"/>
<line x1="102" y1="145" x2="120" y2="145" stroke="#4CAF50" stroke-width="1.5" stroke-dasharray="4,3" stroke-opacity="0.35"/>
<line x1="180" y1="255" x2="230" y2="255" stroke="#EF5350" stroke-width="2" stroke-opacity="0.6"/>
<line x1="290" y1="255" x2="340" y2="255" stroke="#EF5350" stroke-width="2" stroke-opacity="0.6"/>
<line x1="400" y1="255" x2="450" y2="255" stroke="#EF5350" stroke-width="2" stroke-opacity="0.6"/>
<line x1="510" y1="255" x2="560" y2="255" stroke="#EF5350" stroke-width="2" stroke-opacity="0.6"/>
<line x1="620" y1="255" x2="670" y2="255" stroke="#EF5350" stroke-width="2" stroke-opacity="0.6"/>
<line x1="730" y1="255" x2="780" y2="255" stroke="#EF5350" stroke-width="2" stroke-opacity="0.6"/>
<line x1="840" y1="255" x2="890" y2="255" stroke="#EF5350" stroke-width="2" stroke-opacity="0.6"/>
<line x1="950" y1="255" x2="968" y2="255" stroke="#EF5350" stroke-width="1.5" stroke-dasharray="4,3" stroke-opacity="0.35"/>
<line x1="102" y1="255" x2="120" y2="255" stroke="#EF5350" stroke-width="1.5" stroke-dasharray="4,3" stroke-opacity="0.35"/>
<line x1="180" y1="365" x2="230" y2="365" stroke="#FDD835" stroke-width="2" stroke-opacity="0.6"/>
<line x1="290" y1="365" x2="340" y2="365" stroke="#FDD835" stroke-width="2" stroke-opacity="0.6"/>
<line x1="400" y1="365" x2="450" y2="365" stroke="#FDD835" stroke-width="2" stroke-opacity="0.6"/>
<line x1="510" y1="365" x2="560" y2="365" stroke="#FDD835" stroke-width="2" stroke-opacity="0.6"/>
<line x1="620" y1="365" x2="670" y2="365" stroke="#FDD835" stroke-width="2" stroke-opacity="0.6"/>
<line x1="730" y1="365" x2="780" y2="365" stroke="#FDD835" stroke-width="2" stroke-opacity="0.6"/>
<line x1="840" y1="365" x2="890" y2="365" stroke="#FDD835" stroke-width="2" stroke-opacity="0.6"/>
<line x1="950" y1="365" x2="968" y2="365" stroke="#FDD835" stroke-width="1.5" stroke-dasharray="4,3" stroke-opacity="0.35"/>
<line x1="102" y1="365" x2="120" y2="365" stroke="#FDD835" stroke-width="1.5" stroke-dasharray="4,3" stroke-opacity="0.35"/>
<line x1="180" y1="475" x2="230" y2="475" stroke="#B0BEC5" stroke-width="2" stroke-opacity="0.6"/>
<line x1="290" y1="475" x2="340" y2="475" stroke="#B0BEC5" stroke-width="2" stroke-opacity="0.6"/>
<line x1="400" y1="475" x2="450" y2="475" stroke="#B0BEC5" stroke-width="2" stroke-opacity="0.6"/>
<line x1="510" y1="475" x2="560" y2="475" stroke="#B0BEC5" stroke-width="2" stroke-opacity="0.6"/>
<line x1="620" y1="475" x2="670" y2="475" stroke="#B0BEC5" stroke-width="2" stroke-opacity="0.6"/>
<line x1="730" y1="475" x2="780" y2="475" stroke="#B0BEC5" stroke-width="2" stroke-opacity="0.6"/>
<line x1="840" y1="475" x2="890" y2="475" stroke="#B0BEC5" stroke-width="2" stroke-opacity="0.6"/>
<line x1="950" y1="475" x2="968" y2="475" stroke="#B0BEC5" stroke-width="1.5" stroke-dasharray="4,3" stroke-opacity="0.35"/>
<line x1="102" y1="475" x2="120" y2="475" stroke="#B0BEC5" stroke-width="1.5" stroke-dasharray="4,3" stroke-opacity="0.35"/>
<line x1="180" y1="585" x2="230" y2="585" stroke="#42A5F5" stroke-width="2" stroke-opacity="0.6"/>
<line x1="290" y1="585" x2="340" y2="585" stroke="#42A5F5" stroke-width="2" stroke-opacity="0.6"/>
<line x1="400" y1="585" x2="450" y2="585" stroke="#42A5F5" stroke-width="2" stroke-opacity="0.6"/>
<line x1="510" y1="585" x2="560" y2="585" stroke="#42A5F5" stroke-width="2" stroke-opacity="0.6"/>
<line x1="620" y1="585" x2="670" y2="585" stroke="#42A5F5" stroke-width="2" stroke-opacity="0.6"/>
<line x1="730" y1="585" x2="780" y2="585" stroke="#42A5F5" stroke-width="2" stroke-opacity="0.6"/>
<line x1="840" y1="585" x2="890" y2="585" stroke="#42A5F5" stroke-width="2" stroke-opacity="0.6"/>
<line x1="950" y1="585" x2="968" y2="585" stroke="#42A5F5" stroke-width="1.5" stroke-dasharray="4,3" stroke-opacity="0.35"/>
<line x1="102" y1="585" x2="120" y2="585" stroke="#42A5F5" stroke-width="1.5" stroke-dasharray="4,3" stroke-opacity="0.35"/>
<line x1="150" y1="175" x2="150" y2="225" stroke="#4CAF50" stroke-width="2" stroke-opacity="0.55"/>
<line x1="260" y1="175" x2="260" y2="225" stroke="#4CAF50" stroke-width="2" stroke-opacity="0.55"/>
<line x1="370" y1="175" x2="370" y2="225" stroke="#4CAF50" stroke-width="2" stroke-opacity="0.55"/>
<line x1="480" y1="175" x2="480" y2="225" stroke="#4CAF50" stroke-width="2" stroke-opacity="0.55"/>
<line x1="590" y1="175" x2="590" y2="225" stroke="#4CAF50" stroke-width="2" stroke-opacity="0.55"/>
<line x1="700" y1="175" x2="700" y2="225" stroke="#4CAF50" stroke-width="2" stroke-opacity="0.55"/>
<line x1="810" y1="175" x2="810" y2="225" stroke="#4CAF50" stroke-width="2" stroke-opacity="0.55"/>
<line x1="920" y1="175" x2="920" y2="225" stroke="#4CAF50" stroke-width="2" stroke-opacity="0.55"/>
<line x1="150" y1="285" x2="150" y2="335" stroke="#EF5350" stroke-width="2" stroke-opacity="0.55"/>
<line x1="260" y1="285" x2="260" y2="335" stroke="#EF5350" stroke-width="2" stroke-opacity="0.55"/>
<line x1="370" y1="285" x2="370" y2="335" stroke="#EF5350" stroke-width="2" stroke-opacity="0.55"/>
<line x1="480" y1="285" x2="480" y2="335" stroke="#EF5350" stroke-width="2" stroke-opacity="0.55"/>
<line x1="590" y1="285" x2="590" y2="335" stroke="#EF5350" stroke-width="2" stroke-opacity="0.55"/>
<line x1="700" y1="285" x2="700" y2="335" stroke="#EF5350" stroke-width="2" stroke-opacity="0.55"/>
<line x1="810" y1="285" x2="810" y2="335" stroke="#EF5350" stroke-width="2" stroke-opacity="0.55"/>
<line x1="920" y1="285" x2="920" y2="335" stroke="#EF5350" stroke-width="2" stroke-opacity="0.55"/>
<line x1="150" y1="395" x2="150" y2="445" stroke="#FDD835" stroke-width="2" stroke-opacity="0.55"/>
<line x1="260" y1="395" x2="260" y2="445" stroke="#FDD835" stroke-width="2" stroke-opacity="0.55"/>
<line x1="370" y1="395" x2="370" y2="445" stroke="#FDD835" stroke-width="2" stroke-opacity="0.55"/>
<line x1="480" y1="395" x2="480" y2="445" stroke="#FDD835" stroke-width="2" stroke-opacity="0.55"/>
<line x1="590" y1="395" x2="590" y2="445" stroke="#FDD835" stroke-width="2" stroke-opacity="0.55"/>
<line x1="700" y1="395" x2="700" y2="445" stroke="#FDD835" stroke-width="2" stroke-opacity="0.55"/>
<line x1="810" y1="395" x2="810" y2="445" stroke="#FDD835" stroke-width="2" stroke-opacity="0.55"/>
<line x1="920" y1="395" x2="920" y2="445" stroke="#FDD835" stroke-width="2" stroke-opacity="0.55"/>
<line x1="150" y1="505" x2="150" y2="555" stroke="#B0BEC5" stroke-width="2" stroke-opacity="0.55"/>
<line x1="260" y1="505" x2="260" y2="555" stroke="#B0BEC5" stroke-width="2" stroke-opacity="0.55"/>
<line x1="370" y1="505" x2="370" y2="555" stroke="#B0BEC5" stroke-width="2" stroke-opacity="0.55"/>
<line x1="480" y1="505" x2="480" y2="555" stroke="#B0BEC5" stroke-width="2" stroke-opacity="0.55"/>
<line x1="590" y1="505" x2="590" y2="555" stroke="#B0BEC5" stroke-width="2" stroke-opacity="0.55"/>
<line x1="700" y1="505" x2="700" y2="555" stroke="#B0BEC5" stroke-width="2" stroke-opacity="0.55"/>
<line x1="810" y1="505" x2="810" y2="555" stroke="#B0BEC5" stroke-width="2" stroke-opacity="0.55"/>
<line x1="920" y1="505" x2="920" y2="555" stroke="#B0BEC5" stroke-width="2" stroke-opacity="0.55"/>
<line x1="150" y1="615" x2="150" y2="633" stroke="#42A5F5" stroke-width="1.5" stroke-dasharray="4,3" stroke-opacity="0.3"/>
<line x1="150" y1="97" x2="150" y2="115" stroke="#4CAF50" stroke-width="1.5" stroke-dasharray="4,3" stroke-opacity="0.3"/>
<line x1="260" y1="615" x2="260" y2="633" stroke="#42A5F5" stroke-width="1.5" stroke-dasharray="4,3" stroke-opacity="0.3"/>
<line x1="260" y1="97" x2="260" y2="115" stroke="#4CAF50" stroke-width="1.5" stroke-dasharray="4,3" stroke-opacity="0.3"/>
<line x1="370" y1="615" x2="370" y2="633" stroke="#42A5F5" stroke-width="1.5" stroke-dasharray="4,3" stroke-opacity="0.3"/>
<line x1="370" y1="97" x2="370" y2="115" stroke="#4CAF50" stroke-width="1.5" stroke-dasharray="4,3" stroke-opacity="0.3"/>
<line x1="480" y1="615" x2="480" y2="633" stroke="#42A5F5" stroke-width="1.5" stroke-dasharray="4,3" stroke-opacity="0.3"/>
<line x1="480" y1="97" x2="480" y2="115" stroke="#4CAF50" stroke-width="1.5" stroke-dasharray="4,3" stroke-opacity="0.3"/>
<line x1="590" y1="615" x2="590" y2="633" stroke="#42A5F5" stroke-width="1.5" stroke-dasharray="4,3" stroke-opacity="0.3"/>
<line x1="590" y1="97" x2="590" y2="115" stroke="#4CAF50" stroke-width="1.5" stroke-dasharray="4,3" stroke-opacity="0.3"/>
<line x1="700" y1="615" x2="700" y2="633" stroke="#42A5F5" stroke-width="1.5" stroke-dasharray="4,3" stroke-opacity="0.3"/>
<line x1="700" y1="97" x2="700" y2="115" stroke="#4CAF50" stroke-width="1.5" stroke-dasharray="4,3" stroke-opacity="0.3"/>
<line x1="810" y1="615" x2="810" y2="633" stroke="#42A5F5" stroke-width="1.5" stroke-dasharray="4,3" stroke-opacity="0.3"/>
<line x1="810" y1="97" x2="810" y2="115" stroke="#4CAF50" stroke-width="1.5" stroke-dasharray="4,3" stroke-opacity="0.3"/>
<line x1="920" y1="615" x2="920" y2="633" stroke="#42A5F5" stroke-width="1.5" stroke-dasharray="4,3" stroke-opacity="0.3"/>
<line x1="920" y1="97" x2="920" y2="115" stroke="#4CAF50" stroke-width="1.5" stroke-dasharray="4,3" stroke-opacity="0.3"/>
<circle cx="150" cy="145" r="36" fill="#4CAF50" fill-opacity="0.08"/>
<circle cx="150" cy="145" r="30" fill="#2E7D32" stroke="#4CAF50" stroke-width="2.5"/>
<line x1="150" y1="115" x2="150" y2="108" stroke="#4CAF50" stroke-width="2"/>
<line x1="150" y1="175" x2="150" y2="182" stroke="#4CAF50" stroke-width="2"/>
<line x1="180" y1="145" x2="187" y2="145" stroke="#4CAF50" stroke-width="2"/>
<line x1="120" y1="145" x2="113" y2="145" stroke="#4CAF50" stroke-width="2"/>
<circle cx="150" cy="133" r="3.5" fill="#FFD740"/>
<circle cx="162" cy="145" r="3.5" fill="#40C4FF"/>
<circle cx="150" cy="157" r="3.5" fill="#E040FB"/>
<text x="150" y="149" text-anchor="middle" fill="#ccc" font-family="monospace" font-size="9">0</text>
<circle cx="260" cy="145" r="36" fill="#4CAF50" fill-opacity="0.08"/>
<circle cx="260" cy="145" r="30" fill="#2E7D32" stroke="#4CAF50" stroke-width="2.5"/>
<line x1="260" y1="115" x2="260" y2="108" stroke="#4CAF50" stroke-width="2"/>
<line x1="260" y1="175" x2="260" y2="182" stroke="#4CAF50" stroke-width="2"/>
<line x1="290" y1="145" x2="297" y2="145" stroke="#4CAF50" stroke-width="2"/>
<line x1="230" y1="145" x2="223" y2="145" stroke="#4CAF50" stroke-width="2"/>
<circle cx="260" cy="133" r="3.5" fill="#FFD740"/>
<circle cx="272" cy="145" r="3.5" fill="#40C4FF"/>
<circle cx="260" cy="157" r="3.5" fill="#E040FB"/>
<text x="260" y="149" text-anchor="middle" fill="#ccc" font-family="monospace" font-size="9">1</text>
<circle cx="370" cy="145" r="36" fill="#4CAF50" fill-opacity="0.08"/>
<circle cx="370" cy="145" r="30" fill="#2E7D32" stroke="#4CAF50" stroke-width="2.5"/>
<line x1="370" y1="115" x2="370" y2="108" stroke="#4CAF50" stroke-width="2"/>
<line x1="370" y1="175" x2="370" y2="182" stroke="#4CAF50" stroke-width="2"/>
<line x1="400" y1="145" x2="407" y2="145" stroke="#4CAF50" stroke-width="2"/>
<line x1="340" y1="145" x2="333" y2="145" stroke="#4CAF50" stroke-width="2"/>
<circle cx="370" cy="133" r="3.5" fill="#FFD740"/>
<circle cx="382" cy="145" r="3.5" fill="#40C4FF"/>
<circle cx="370" cy="157" r="3.5" fill="#E040FB"/>
<text x="370" y="149" text-anchor="middle" fill="#ccc" font-family="monospace" font-size="9">2</text>
<circle cx="480" cy="145" r="36" fill="#4CAF50" fill-opacity="0.08"/>
<circle cx="480" cy="145" r="30" fill="#2E7D32" stroke="#4CAF50" stroke-width="2.5"/>
<line x1="480" y1="115" x2="480" y2="108" stroke="#4CAF50" stroke-width="2"/>
<line x1="480" y1="175" x2="480" y2="182" stroke="#4CAF50" stroke-width="2"/>
<line x1="510" y1="145" x2="517" y2="145" stroke="#4CAF50" stroke-width="2"/>
<line x1="450" y1="145" x2="443" y2="145" stroke="#4CAF50" stroke-width="2"/>
<circle cx="480" cy="133" r="3.5" fill="#FFD740"/>
<circle cx="492" cy="145" r="3.5" fill="#40C4FF"/>
<circle cx="480" cy="157" r="3.5" fill="#E040FB"/>
<text x="480" y="149" text-anchor="middle" fill="#ccc" font-family="monospace" font-size="9">3</text>
<circle cx="590" cy="145" r="36" fill="#4CAF50" fill-opacity="0.08"/>
<circle cx="590" cy="145" r="30" fill="#2E7D32" stroke="#4CAF50" stroke-width="2.5"/>
<line x1="590" y1="115" x2="590" y2="108" stroke="#4CAF50" stroke-width="2"/>
<line x1="590" y1="175" x2="590" y2="182" stroke="#4CAF50" stroke-width="2"/>
<line x1="620" y1="145" x2="627" y2="145" stroke="#4CAF50" stroke-width="2"/>
<line x1="560" y1="145" x2="553" y2="145" stroke="#4CAF50" stroke-width="2"/>
<circle cx="590" cy="133" r="3.5" fill="#FFD740"/>
<circle cx="602" cy="145" r="3.5" fill="#40C4FF"/>
<circle cx="590" cy="157" r="3.5" fill="#E040FB"/>
<text x="590" y="149" text-anchor="middle" fill="#ccc" font-family="monospace" font-size="9">4</text>
<circle cx="700" cy="145" r="36" fill="#4CAF50" fill-opacity="0.08"/>
<circle cx="700" cy="145" r="30" fill="#2E7D32" stroke="#4CAF50" stroke-width="2.5"/>
<line x1="700" y1="115" x2="700" y2="108" stroke="#4CAF50" stroke-width="2"/>
<line x1="700" y1="175" x2="700" y2="182" stroke="#4CAF50" stroke-width="2"/>
<line x1="730" y1="145" x2="737" y2="145" stroke="#4CAF50" stroke-width="2"/>
<line x1="670" y1="145" x2="663" y2="145" stroke="#4CAF50" stroke-width="2"/>
<circle cx="700" cy="133" r="3.5" fill="#FFD740"/>
<circle cx="712" cy="145" r="3.5" fill="#40C4FF"/>
<circle cx="700" cy="157" r="3.5" fill="#E040FB"/>
<text x="700" y="149" text-anchor="middle" fill="#ccc" font-family="monospace" font-size="9">5</text>
<circle cx="810" cy="145" r="36" fill="#4CAF50" fill-opacity="0.08"/>
<circle cx="810" cy="145" r="30" fill="#2E7D32" stroke="#4CAF50" stroke-width="2.5"/>
<line x1="810" y1="115" x2="810" y2="108" stroke="#4CAF50" stroke-width="2"/>
<line x1="810" y1="175" x2="810" y2="182" stroke="#4CAF50" stroke-width="2"/>
<line x1="840" y1="145" x2="847" y2="145" stroke="#4CAF50" stroke-width="2"/>
<line x1="780" y1="145" x2="773" y2="145" stroke="#4CAF50" stroke-width="2"/>
<circle cx="810" cy="133" r="3.5" fill="#FFD740"/>
<circle cx="822" cy="145" r="3.5" fill="#40C4FF"/>
<circle cx="810" cy="157" r="3.5" fill="#E040FB"/>
<text x="810" y="149" text-anchor="middle" fill="#ccc" font-family="monospace" font-size="9">6</text>
<circle cx="920" cy="145" r="36" fill="#4CAF50" fill-opacity="0.08"/>
<circle cx="920" cy="145" r="30" fill="#2E7D32" stroke="#4CAF50" stroke-width="2.5"/>
<line x1="920" y1="115" x2="920" y2="108" stroke="#4CAF50" stroke-width="2"/>
<line x1="920" y1="175" x2="920" y2="182" stroke="#4CAF50" stroke-width="2"/>
<line x1="950" y1="145" x2="957" y2="145" stroke="#4CAF50" stroke-width="2"/>
<line x1="890" y1="145" x2="883" y2="145" stroke="#4CAF50" stroke-width="2"/>
<circle cx="920" cy="133" r="3.5" fill="#FFD740"/>
<circle cx="932" cy="145" r="3.5" fill="#40C4FF"/>
<circle cx="920" cy="157" r="3.5" fill="#E040FB"/>
<text x="920" y="149" text-anchor="middle" fill="#ccc" font-family="monospace" font-size="9">7</text>
<circle cx="150" cy="255" r="36" fill="#EF5350" fill-opacity="0.08"/>
<circle cx="150" cy="255" r="30" fill="#B71C1C" stroke="#EF5350" stroke-width="2.5"/>
<line x1="150" y1="225" x2="150" y2="218" stroke="#EF5350" stroke-width="2"/>
<line x1="150" y1="285" x2="150" y2="292" stroke="#EF5350" stroke-width="2"/>
<line x1="180" y1="255" x2="187" y2="255" stroke="#EF5350" stroke-width="2"/>
<line x1="120" y1="255" x2="113" y2="255" stroke="#EF5350" stroke-width="2"/>
<circle cx="150" cy="243" r="3.5" fill="#FFD740"/>
<circle cx="162" cy="255" r="3.5" fill="#40C4FF"/>
<circle cx="150" cy="267" r="3.5" fill="#E040FB"/>
<text x="150" y="259" text-anchor="middle" fill="#ccc" font-family="monospace" font-size="9">8</text>
<circle cx="260" cy="255" r="36" fill="#EF5350" fill-opacity="0.08"/>
<circle cx="260" cy="255" r="30" fill="#B71C1C" stroke="#EF5350" stroke-width="2.5"/>
<line x1="260" y1="225" x2="260" y2="218" stroke="#EF5350" stroke-width="2"/>
<line x1="260" y1="285" x2="260" y2="292" stroke="#EF5350" stroke-width="2"/>
<line x1="290" y1="255" x2="297" y2="255" stroke="#EF5350" stroke-width="2"/>
<line x1="230" y1="255" x2="223" y2="255" stroke="#EF5350" stroke-width="2"/>
<circle cx="260" cy="243" r="3.5" fill="#FFD740"/>
<circle cx="272" cy="255" r="3.5" fill="#40C4FF"/>
<circle cx="260" cy="267" r="3.5" fill="#E040FB"/>
<text x="260" y="259" text-anchor="middle" fill="#ccc" font-family="monospace" font-size="9">9</text>
<circle cx="370" cy="255" r="36" fill="#EF5350" fill-opacity="0.08"/>
<circle cx="370" cy="255" r="30" fill="#B71C1C" stroke="#EF5350" stroke-width="2.5"/>
<line x1="370" y1="225" x2="370" y2="218" stroke="#EF5350" stroke-width="2"/>
<line x1="370" y1="285" x2="370" y2="292" stroke="#EF5350" stroke-width="2"/>
<line x1="400" y1="255" x2="407" y2="255" stroke="#EF5350" stroke-width="2"/>
<line x1="340" y1="255" x2="333" y2="255" stroke="#EF5350" stroke-width="2"/>
<circle cx="370" cy="243" r="3.5" fill="#FFD740"/>
<circle cx="382" cy="255" r="3.5" fill="#40C4FF"/>
<circle cx="370" cy="267" r="3.5" fill="#E040FB"/>
<text x="370" y="259" text-anchor="middle" fill="#ccc" font-family="monospace" font-size="9">10</text>
<circle cx="480" cy="255" r="36" fill="#EF5350" fill-opacity="0.08"/>
<circle cx="480" cy="255" r="30" fill="#B71C1C" stroke="#EF5350" stroke-width="2.5"/>
<line x1="480" y1="225" x2="480" y2="218" stroke="#EF5350" stroke-width="2"/>
<line x1="480" y1="285" x2="480" y2="292" stroke="#EF5350" stroke-width="2"/>
<line x1="510" y1="255" x2="517" y2="255" stroke="#EF5350" stroke-width="2"/>
<line x1="450" y1="255" x2="443" y2="255" stroke="#EF5350" stroke-width="2"/>
<circle cx="480" cy="243" r="3.5" fill="#FFD740"/>
<circle cx="492" cy="255" r="3.5" fill="#40C4FF"/>
<circle cx="480" cy="267" r="3.5" fill="#E040FB"/>
<text x="480" y="259" text-anchor="middle" fill="#ccc" font-family="monospace" font-size="9">11</text>
<circle cx="590" cy="255" r="36" fill="#EF5350" fill-opacity="0.08"/>
<circle cx="590" cy="255" r="30" fill="#B71C1C" stroke="#EF5350" stroke-width="2.5"/>
<line x1="590" y1="225" x2="590" y2="218" stroke="#EF5350" stroke-width="2"/>
<line x1="590" y1="285" x2="590" y2="292" stroke="#EF5350" stroke-width="2"/>
<line x1="620" y1="255" x2="627" y2="255" stroke="#EF5350" stroke-width="2"/>
<line x1="560" y1="255" x2="553" y2="255" stroke="#EF5350" stroke-width="2"/>
<circle cx="590" cy="243" r="3.5" fill="#FFD740"/>
<circle cx="602" cy="255" r="3.5" fill="#40C4FF"/>
<circle cx="590" cy="267" r="3.5" fill="#E040FB"/>
<text x="590" y="259" text-anchor="middle" fill="#ccc" font-family="monospace" font-size="9">12</text>
<circle cx="700" cy="255" r="36" fill="#EF5350" fill-opacity="0.08"/>
<circle cx="700" cy="255" r="30" fill="#B71C1C" stroke="#EF5350" stroke-width="2.5"/>
<line x1="700" y1="225" x2="700" y2="218" stroke="#EF5350" stroke-width="2"/>
<line x1="700" y1="285" x2="700" y2="292" stroke="#EF5350" stroke-width="2"/>
<line x1="730" y1="255" x2="737" y2="255" stroke="#EF5350" stroke-width="2"/>
<line x1="670" y1="255" x2="663" y2="255" stroke="#EF5350" stroke-width="2"/>
<circle cx="700" cy="243" r="3.5" fill="#FFD740"/>
<circle cx="712" cy="255" r="3.5" fill="#40C4FF"/>
<circle cx="700" cy="267" r="3.5" fill="#E040FB"/>
<text x="700" y="259" text-anchor="middle" fill="#ccc" font-family="monospace" font-size="9">13</text>
<circle cx="810" cy="255" r="36" fill="#EF5350" fill-opacity="0.08"/>
<circle cx="810" cy="255" r="30" fill="#B71C1C" stroke="#EF5350" stroke-width="2.5"/>
<line x1="810" y1="225" x2="810" y2="218" stroke="#EF5350" stroke-width="2"/>
<line x1="810" y1="285" x2="810" y2="292" stroke="#EF5350" stroke-width="2"/>
<line x1="840" y1="255" x2="847" y2="255" stroke="#EF5350" stroke-width="2"/>
<line x1="780" y1="255" x2="773" y2="255" stroke="#EF5350" stroke-width="2"/>
<circle cx="810" cy="243" r="3.5" fill="#FFD740"/>
<circle cx="822" cy="255" r="3.5" fill="#40C4FF"/>
<circle cx="810" cy="267" r="3.5" fill="#E040FB"/>
<text x="810" y="259" text-anchor="middle" fill="#ccc" font-family="monospace" font-size="9">14</text>
<circle cx="920" cy="255" r="36" fill="#EF5350" fill-opacity="0.08"/>
<circle cx="920" cy="255" r="30" fill="#B71C1C" stroke="#EF5350" stroke-width="2.5"/>
<line x1="920" y1="225" x2="920" y2="218" stroke="#EF5350" stroke-width="2"/>
<line x1="920" y1="285" x2="920" y2="292" stroke="#EF5350" stroke-width="2"/>
<line x1="950" y1="255" x2="957" y2="255" stroke="#EF5350" stroke-width="2"/>
<line x1="890" y1="255" x2="883" y2="255" stroke="#EF5350" stroke-width="2"/>
<circle cx="920" cy="243" r="3.5" fill="#FFD740"/>
<circle cx="932" cy="255" r="3.5" fill="#40C4FF"/>
<circle cx="920" cy="267" r="3.5" fill="#E040FB"/>
<text x="920" y="259" text-anchor="middle" fill="#ccc" font-family="monospace" font-size="9">15</text>
<circle cx="150" cy="365" r="36" fill="#FDD835" fill-opacity="0.08"/>
<circle cx="150" cy="365" r="30" fill="#F57F17" stroke="#FDD835" stroke-width="2.5"/>
<line x1="150" y1="335" x2="150" y2="328" stroke="#FDD835" stroke-width="2"/>
<line x1="150" y1="395" x2="150" y2="402" stroke="#FDD835" stroke-width="2"/>
<line x1="180" y1="365" x2="187" y2="365" stroke="#FDD835" stroke-width="2"/>
<line x1="120" y1="365" x2="113" y2="365" stroke="#FDD835" stroke-width="2"/>
<circle cx="150" cy="353" r="3.5" fill="#FFD740"/>
<circle cx="162" cy="365" r="3.5" fill="#40C4FF"/>
<circle cx="150" cy="377" r="3.5" fill="#E040FB"/>
<text x="150" y="369" text-anchor="middle" fill="#ccc" font-family="monospace" font-size="9">16</text>
<circle cx="260" cy="365" r="36" fill="#FDD835" fill-opacity="0.08"/>
<circle cx="260" cy="365" r="30" fill="#F57F17" stroke="#FDD835" stroke-width="2.5"/>
<line x1="260" y1="335" x2="260" y2="328" stroke="#FDD835" stroke-width="2"/>
<line x1="260" y1="395" x2="260" y2="402" stroke="#FDD835" stroke-width="2"/>
<line x1="290" y1="365" x2="297" y2="365" stroke="#FDD835" stroke-width="2"/>
<line x1="230" y1="365" x2="223" y2="365" stroke="#FDD835" stroke-width="2"/>
<circle cx="260" cy="353" r="3.5" fill="#FFD740"/>
<circle cx="272" cy="365" r="3.5" fill="#40C4FF"/>
<circle cx="260" cy="377" r="3.5" fill="#E040FB"/>
<text x="260" y="369" text-anchor="middle" fill="#ccc" font-family="monospace" font-size="9">17</text>
<circle cx="370" cy="365" r="36" fill="#FDD835" fill-opacity="0.08"/>
<circle cx="370" cy="365" r="30" fill="#F57F17" stroke="#FDD835" stroke-width="2.5"/>
<line x1="370" y1="335" x2="370" y2="328" stroke="#FDD835" stroke-width="2"/>
<line x1="370" y1="395" x2="370" y2="402" stroke="#FDD835" stroke-width="2"/>
<line x1="400" y1="365" x2="407" y2="365" stroke="#FDD835" stroke-width="2"/>
<line x1="340" y1="365" x2="333" y2="365" stroke="#FDD835" stroke-width="2"/>
<circle cx="370" cy="353" r="3.5" fill="#FFD740"/>
<circle cx="382" cy="365" r="3.5" fill="#40C4FF"/>
<circle cx="370" cy="377" r="3.5" fill="#E040FB"/>
<text x="370" y="369" text-anchor="middle" fill="#ccc" font-family="monospace" font-size="9">18</text>
<circle cx="480" cy="365" r="36" fill="#FDD835" fill-opacity="0.08"/>
<circle cx="480" cy="365" r="30" fill="#F57F17" stroke="#FDD835" stroke-width="2.5"/>
<line x1="480" y1="335" x2="480" y2="328" stroke="#FDD835" stroke-width="2"/>
<line x1="480" y1="395" x2="480" y2="402" stroke="#FDD835" stroke-width="2"/>
<line x1="510" y1="365" x2="517" y2="365" stroke="#FDD835" stroke-width="2"/>
<line x1="450" y1="365" x2="443" y2="365" stroke="#FDD835" stroke-width="2"/>
<circle cx="480" cy="353" r="3.5" fill="#FFD740"/>
<circle cx="492" cy="365" r="3.5" fill="#40C4FF"/>
<circle cx="480" cy="377" r="3.5" fill="#E040FB"/>
<text x="480" y="369" text-anchor="middle" fill="#ccc" font-family="monospace" font-size="9">19</text>
<circle cx="590" cy="365" r="36" fill="#FDD835" fill-opacity="0.08"/>
<circle cx="590" cy="365" r="30" fill="#F57F17" stroke="#FDD835" stroke-width="2.5"/>
<line x1="590" y1="335" x2="590" y2="328" stroke="#FDD835" stroke-width="2"/>
<line x1="590" y1="395" x2="590" y2="402" stroke="#FDD835" stroke-width="2"/>
<line x1="620" y1="365" x2="627" y2="365" stroke="#FDD835" stroke-width="2"/>
<line x1="560" y1="365" x2="553" y2="365" stroke="#FDD835" stroke-width="2"/>
<circle cx="590" cy="353" r="3.5" fill="#FFD740"/>
<circle cx="602" cy="365" r="3.5" fill="#40C4FF"/>
<circle cx="590" cy="377" r="3.5" fill="#E040FB"/>
<text x="590" y="369" text-anchor="middle" fill="#ccc" font-family="monospace" font-size="9">20</text>
<circle cx="700" cy="365" r="36" fill="#FDD835" fill-opacity="0.08"/>
<circle cx="700" cy="365" r="30" fill="#F57F17" stroke="#FDD835" stroke-width="2.5"/>
<line x1="700" y1="335" x2="700" y2="328" stroke="#FDD835" stroke-width="2"/>
<line x1="700" y1="395" x2="700" y2="402" stroke="#FDD835" stroke-width="2"/>
<line x1="730" y1="365" x2="737" y2="365" stroke="#FDD835" stroke-width="2"/>
<line x1="670" y1="365" x2="663" y2="365" stroke="#FDD835" stroke-width="2"/>
<circle cx="700" cy="353" r="3.5" fill="#FFD740"/>
<circle cx="712" cy="365" r="3.5" fill="#40C4FF"/>
<circle cx="700" cy="377" r="3.5" fill="#E040FB"/>
<text x="700" y="369" text-anchor="middle" fill="#ccc" font-family="monospace" font-size="9">21</text>
<circle cx="810" cy="365" r="36" fill="#FDD835" fill-opacity="0.08"/>
<circle cx="810" cy="365" r="30" fill="#F57F17" stroke="#FDD835" stroke-width="2.5"/>
<line x1="810" y1="335" x2="810" y2="328" stroke="#FDD835" stroke-width="2"/>
<line x1="810" y1="395" x2="810" y2="402" stroke="#FDD835" stroke-width="2"/>
<line x1="840" y1="365" x2="847" y2="365" stroke="#FDD835" stroke-width="2"/>
<line x1="780" y1="365" x2="773" y2="365" stroke="#FDD835" stroke-width="2"/>
<circle cx="810" cy="353" r="3.5" fill="#FFD740"/>
<circle cx="822" cy="365" r="3.5" fill="#40C4FF"/>
<circle cx="810" cy="377" r="3.5" fill="#E040FB"/>
<text x="810" y="369" text-anchor="middle" fill="#ccc" font-family="monospace" font-size="9">22</text>
<circle cx="920" cy="365" r="36" fill="#FDD835" fill-opacity="0.08"/>
<circle cx="920" cy="365" r="30" fill="#F57F17" stroke="#FDD835" stroke-width="2.5"/>
<line x1="920" y1="335" x2="920" y2="328" stroke="#FDD835" stroke-width="2"/>
<line x1="920" y1="395" x2="920" y2="402" stroke="#FDD835" stroke-width="2"/>
<line x1="950" y1="365" x2="957" y2="365" stroke="#FDD835" stroke-width="2"/>
<line x1="890" y1="365" x2="883" y2="365" stroke="#FDD835" stroke-width="2"/>
<circle cx="920" cy="353" r="3.5" fill="#FFD740"/>
<circle cx="932" cy="365" r="3.5" fill="#40C4FF"/>
<circle cx="920" cy="377" r="3.5" fill="#E040FB"/>
<text x="920" y="369" text-anchor="middle" fill="#ccc" font-family="monospace" font-size="9">23</text>
<circle cx="150" cy="475" r="36" fill="#B0BEC5" fill-opacity="0.08"/>
<circle cx="150" cy="475" r="30" fill="#546E7A" stroke="#B0BEC5" stroke-width="2.5"/>
<line x1="150" y1="445" x2="150" y2="438" stroke="#B0BEC5" stroke-width="2"/>
<line x1="150" y1="505" x2="150" y2="512" stroke="#B0BEC5" stroke-width="2"/>
<line x1="180" y1="475" x2="187" y2="475" stroke="#B0BEC5" stroke-width="2"/>
<line x1="120" y1="475" x2="113" y2="475" stroke="#B0BEC5" stroke-width="2"/>
<circle cx="150" cy="463" r="3.5" fill="#FFD740"/>
<circle cx="162" cy="475" r="3.5" fill="#40C4FF"/>
<circle cx="150" cy="487" r="3.5" fill="#E040FB"/>
<text x="150" y="479" text-anchor="middle" fill="#ccc" font-family="monospace" font-size="9">24</text>
<circle cx="260" cy="475" r="36" fill="#B0BEC5" fill-opacity="0.08"/>
<circle cx="260" cy="475" r="30" fill="#546E7A" stroke="#B0BEC5" stroke-width="2.5"/>
<line x1="260" y1="445" x2="260" y2="438" stroke="#B0BEC5" stroke-width="2"/>
<line x1="260" y1="505" x2="260" y2="512" stroke="#B0BEC5" stroke-width="2"/>
<line x1="290" y1="475" x2="297" y2="475" stroke="#B0BEC5" stroke-width="2"/>
<line x1="230" y1="475" x2="223" y2="475" stroke="#B0BEC5" stroke-width="2"/>
<circle cx="260" cy="463" r="3.5" fill="#FFD740"/>
<circle cx="272" cy="475" r="3.5" fill="#40C4FF"/>
<circle cx="260" cy="487" r="3.5" fill="#E040FB"/>
<text x="260" y="479" text-anchor="middle" fill="#ccc" font-family="monospace" font-size="9">25</text>
<circle cx="370" cy="475" r="36" fill="#B0BEC5" fill-opacity="0.08"/>
<circle cx="370" cy="475" r="30" fill="#546E7A" stroke="#B0BEC5" stroke-width="2.5"/>
<line x1="370" y1="445" x2="370" y2="438" stroke="#B0BEC5" stroke-width="2"/>
<line x1="370" y1="505" x2="370" y2="512" stroke="#B0BEC5" stroke-width="2"/>
<line x1="400" y1="475" x2="407" y2="475" stroke="#B0BEC5" stroke-width="2"/>
<line x1="340" y1="475" x2="333" y2="475" stroke="#B0BEC5" stroke-width="2"/>
<circle cx="370" cy="463" r="3.5" fill="#FFD740"/>
<circle cx="382" cy="475" r="3.5" fill="#40C4FF"/>
<circle cx="370" cy="487" r="3.5" fill="#E040FB"/>
<text x="370" y="479" text-anchor="middle" fill="#ccc" font-family="monospace" font-size="9">26</text>
<circle cx="480" cy="475" r="36" fill="#B0BEC5" fill-opacity="0.08"/>
<circle cx="480" cy="475" r="30" fill="#546E7A" stroke="#B0BEC5" stroke-width="2.5"/>
<line x1="480" y1="445" x2="480" y2="438" stroke="#B0BEC5" stroke-width="2"/>
<line x1="480" y1="505" x2="480" y2="512" stroke="#B0BEC5" stroke-width="2"/>
<line x1="510" y1="475" x2="517" y2="475" stroke="#B0BEC5" stroke-width="2"/>
<line x1="450" y1="475" x2="443" y2="475" stroke="#B0BEC5" stroke-width="2"/>
<circle cx="480" cy="463" r="3.5" fill="#FFD740"/>
<circle cx="492" cy="475" r="3.5" fill="#40C4FF"/>
<circle cx="480" cy="487" r="3.5" fill="#E040FB"/>
<text x="480" y="479" text-anchor="middle" fill="#ccc" font-family="monospace" font-size="9">27</text>
<circle cx="590" cy="475" r="36" fill="#B0BEC5" fill-opacity="0.08"/>
<circle cx="590" cy="475" r="30" fill="#546E7A" stroke="#B0BEC5" stroke-width="2.5"/>
<line x1="590" y1="445" x2="590" y2="438" stroke="#B0BEC5" stroke-width="2"/>
<line x1="590" y1="505" x2="590" y2="512" stroke="#B0BEC5" stroke-width="2"/>
<line x1="620" y1="475" x2="627" y2="475" stroke="#B0BEC5" stroke-width="2"/>
<line x1="560" y1="475" x2="553" y2="475" stroke="#B0BEC5" stroke-width="2"/>
<circle cx="590" cy="463" r="3.5" fill="#FFD740"/>
<circle cx="602" cy="475" r="3.5" fill="#40C4FF"/>
<circle cx="590" cy="487" r="3.5" fill="#E040FB"/>
<text x="590" y="479" text-anchor="middle" fill="#ccc" font-family="monospace" font-size="9">28</text>
<circle cx="700" cy="475" r="36" fill="#B0BEC5" fill-opacity="0.08"/>
<circle cx="700" cy="475" r="30" fill="#546E7A" stroke="#B0BEC5" stroke-width="2.5"/>
<line x1="700" y1="445" x2="700" y2="438" stroke="#B0BEC5" stroke-width="2"/>
<line x1="700" y1="505" x2="700" y2="512" stroke="#B0BEC5" stroke-width="2"/>
<line x1="730" y1="475" x2="737" y2="475" stroke="#B0BEC5" stroke-width="2"/>
<line x1="670" y1="475" x2="663" y2="475" stroke="#B0BEC5" stroke-width="2"/>
<circle cx="700" cy="463" r="3.5" fill="#FFD740"/>
<circle cx="712" cy="475" r="3.5" fill="#40C4FF"/>
<circle cx="700" cy="487" r="3.5" fill="#E040FB"/>
<text x="700" y="479" text-anchor="middle" fill="#ccc" font-family="monospace" font-size="9">29</text>
<circle cx="810" cy="475" r="36" fill="#B0BEC5" fill-opacity="0.08"/>
<circle cx="810" cy="475" r="30" fill="#546E7A" stroke="#B0BEC5" stroke-width="2.5"/>
<line x1="810" y1="445" x2="810" y2="438" stroke="#B0BEC5" stroke-width="2"/>
<line x1="810" y1="505" x2="810" y2="512" stroke="#B0BEC5" stroke-width="2"/>
<line x1="840" y1="475" x2="847" y2="475" stroke="#B0BEC5" stroke-width="2"/>
<line x1="780" y1="475" x2="773" y2="475" stroke="#B0BEC5" stroke-width="2"/>
<circle cx="810" cy="463" r="3.5" fill="#FFD740"/>
<circle cx="822" cy="475" r="3.5" fill="#40C4FF"/>
<circle cx="810" cy="487" r="3.5" fill="#E040FB"/>
<text x="810" y="479" text-anchor="middle" fill="#ccc" font-family="monospace" font-size="9">30</text>
<circle cx="920" cy="475" r="36" fill="#B0BEC5" fill-opacity="0.08"/>
<circle cx="920" cy="475" r="30" fill="#546E7A" stroke="#B0BEC5" stroke-width="2.5"/>
<line x1="920" y1="445" x2="920" y2="438" stroke="#B0BEC5" stroke-width="2"/>
<line x1="920" y1="505" x2="920" y2="512" stroke="#B0BEC5" stroke-width="2"/>
<line x1="950" y1="475" x2="957" y2="475" stroke="#B0BEC5" stroke-width="2"/>
<line x1="890" y1="475" x2="883" y2="475" stroke="#B0BEC5" stroke-width="2"/>
<circle cx="920" cy="463" r="3.5" fill="#FFD740"/>
<circle cx="932" cy="475" r="3.5" fill="#40C4FF"/>
<circle cx="920" cy="487" r="3.5" fill="#E040FB"/>
<text x="920" y="479" text-anchor="middle" fill="#ccc" font-family="monospace" font-size="9">31</text>
<circle cx="150" cy="585" r="36" fill="#42A5F5" fill-opacity="0.08"/>
<circle cx="150" cy="585" r="30" fill="#0D47A1" stroke="#42A5F5" stroke-width="2.5"/>
<line x1="150" y1="555" x2="150" y2="548" stroke="#42A5F5" stroke-width="2"/>
<line x1="150" y1="615" x2="150" y2="622" stroke="#42A5F5" stroke-width="2"/>
<line x1="180" y1="585" x2="187" y2="585" stroke="#42A5F5" stroke-width="2"/>
<line x1="120" y1="585" x2="113" y2="585" stroke="#42A5F5" stroke-width="2"/>
<circle cx="150" cy="573" r="3.5" fill="#FFD740"/>
<circle cx="162" cy="585" r="3.5" fill="#40C4FF"/>
<circle cx="150" cy="597" r="3.5" fill="#E040FB"/>
<text x="150" y="589" text-anchor="middle" fill="#ccc" font-family="monospace" font-size="9">32</text>
<circle cx="260" cy="585" r="36" fill="#42A5F5" fill-opacity="0.08"/>
<circle cx="260" cy="585" r="30" fill="#0D47A1" stroke="#42A5F5" stroke-width="2.5"/>
<line x1="260" y1="555" x2="260" y2="548" stroke="#42A5F5" stroke-width="2"/>
<line x1="260" y1="615" x2="260" y2="622" stroke="#42A5F5" stroke-width="2"/>
<line x1="290" y1="585" x2="297" y2="585" stroke="#42A5F5" stroke-width="2"/>
<line x1="230" y1="585" x2="223" y2="585" stroke="#42A5F5" stroke-width="2"/>
<circle cx="260" cy="573" r="3.5" fill="#FFD740"/>
<circle cx="272" cy="585" r="3.5" fill="#40C4FF"/>
<circle cx="260" cy="597" r="3.5" fill="#E040FB"/>
<text x="260" y="589" text-anchor="middle" fill="#ccc" font-family="monospace" font-size="9">33</text>
<circle cx="370" cy="585" r="36" fill="#42A5F5" fill-opacity="0.08"/>
<circle cx="370" cy="585" r="30" fill="#0D47A1" stroke="#42A5F5" stroke-width="2.5"/>
<line x1="370" y1="555" x2="370" y2="548" stroke="#42A5F5" stroke-width="2"/>
<line x1="370" y1="615" x2="370" y2="622" stroke="#42A5F5" stroke-width="2"/>
<line x1="400" y1="585" x2="407" y2="585" stroke="#42A5F5" stroke-width="2"/>
<line x1="340" y1="585" x2="333" y2="585" stroke="#42A5F5" stroke-width="2"/>
<circle cx="370" cy="573" r="3.5" fill="#FFD740"/>
<circle cx="382" cy="585" r="3.5" fill="#40C4FF"/>
<circle cx="370" cy="597" r="3.5" fill="#E040FB"/>
<text x="370" y="589" text-anchor="middle" fill="#ccc" font-family="monospace" font-size="9">34</text>
<circle cx="480" cy="585" r="36" fill="#42A5F5" fill-opacity="0.08"/>
<circle cx="480" cy="585" r="30" fill="#0D47A1" stroke="#42A5F5" stroke-width="2.5"/>
<line x1="480" y1="555" x2="480" y2="548" stroke="#42A5F5" stroke-width="2"/>
<line x1="480" y1="615" x2="480" y2="622" stroke="#42A5F5" stroke-width="2"/>
<line x1="510" y1="585" x2="517" y2="585" stroke="#42A5F5" stroke-width="2"/>
<line x1="450" y1="585" x2="443" y2="585" stroke="#42A5F5" stroke-width="2"/>
<circle cx="480" cy="573" r="3.5" fill="#FFD740"/>
<circle cx="492" cy="585" r="3.5" fill="#40C4FF"/>
<circle cx="480" cy="597" r="3.5" fill="#E040FB"/>
<text x="480" y="589" text-anchor="middle" fill="#ccc" font-family="monospace" font-size="9">35</text>
<circle cx="590" cy="585" r="36" fill="#42A5F5" fill-opacity="0.08"/>
<circle cx="590" cy="585" r="30" fill="#0D47A1" stroke="#42A5F5" stroke-width="2.5"/>
<line x1="590" y1="555" x2="590" y2="548" stroke="#42A5F5" stroke-width="2"/>
<line x1="590" y1="615" x2="590" y2="622" stroke="#42A5F5" stroke-width="2"/>
<line x1="620" y1="585" x2="627" y2="585" stroke="#42A5F5" stroke-width="2"/>
<line x1="560" y1="585" x2="553" y2="585" stroke="#42A5F5" stroke-width="2"/>
<circle cx="590" cy="573" r="3.5" fill="#FFD740"/>
<circle cx="602" cy="585" r="3.5" fill="#40C4FF"/>
<circle cx="590" cy="597" r="3.5" fill="#E040FB"/>
<text x="590" y="589" text-anchor="middle" fill="#ccc" font-family="monospace" font-size="9">36</text>
<circle cx="700" cy="585" r="36" fill="#42A5F5" fill-opacity="0.08"/>
<circle cx="700" cy="585" r="30" fill="#0D47A1" stroke="#42A5F5" stroke-width="2.5"/>
<line x1="700" y1="555" x2="700" y2="548" stroke="#42A5F5" stroke-width="2"/>
<line x1="700" y1="615" x2="700" y2="622" stroke="#42A5F5" stroke-width="2"/>
<line x1="730" y1="585" x2="737" y2="585" stroke="#42A5F5" stroke-width="2"/>
<line x1="670" y1="585" x2="663" y2="585" stroke="#42A5F5" stroke-width="2"/>
<circle cx="700" cy="573" r="3.5" fill="#FFD740"/>
<circle cx="712" cy="585" r="3.5" fill="#40C4FF"/>
<circle cx="700" cy="597" r="3.5" fill="#E040FB"/>
<text x="700" y="589" text-anchor="middle" fill="#ccc" font-family="monospace" font-size="9">37</text>
<circle cx="810" cy="585" r="36" fill="#42A5F5" fill-opacity="0.08"/>
<circle cx="810" cy="585" r="30" fill="#0D47A1" stroke="#42A5F5" stroke-width="2.5"/>
<line x1="810" y1="555" x2="810" y2="548" stroke="#42A5F5" stroke-width="2"/>
<line x1="810" y1="615" x2="810" y2="622" stroke="#42A5F5" stroke-width="2"/>
<line x1="840" y1="585" x2="847" y2="585" stroke="#42A5F5" stroke-width="2"/>
<line x1="780" y1="585" x2="773" y2="585" stroke="#42A5F5" stroke-width="2"/>
<circle cx="810" cy="573" r="3.5" fill="#FFD740"/>
<circle cx="822" cy="585" r="3.5" fill="#40C4FF"/>
<circle cx="810" cy="597" r="3.5" fill="#E040FB"/>
<text x="810" y="589" text-anchor="middle" fill="#ccc" font-family="monospace" font-size="9">38</text>
<circle cx="920" cy="585" r="36" fill="#42A5F5" fill-opacity="0.08"/>
<circle cx="920" cy="585" r="30" fill="#0D47A1" stroke="#42A5F5" stroke-width="2.5"/>
<line x1="920" y1="555" x2="920" y2="548" stroke="#42A5F5" stroke-width="2"/>
<line x1="920" y1="615" x2="920" y2="622" stroke="#42A5F5" stroke-width="2"/>
<line x1="950" y1="585" x2="957" y2="585" stroke="#42A5F5" stroke-width="2"/>
<line x1="890" y1="585" x2="883" y2="585" stroke="#42A5F5" stroke-width="2"/>
<circle cx="920" cy="573" r="3.5" fill="#FFD740"/>
<circle cx="932" cy="585" r="3.5" fill="#40C4FF"/>
<circle cx="920" cy="597" r="3.5" fill="#E040FB"/>
<text x="920" y="589" text-anchor="middle" fill="#ccc" font-family="monospace" font-size="9">39</text>
<text x="90" y="137" text-anchor="middle" fill="#4CAF50" font-family="monospace" font-size="13" font-weight="bold">Wood</text>
<text x="90" y="153" text-anchor="middle" fill="#4CAF50" font-family="monospace" font-size="9">row 0</text>
<text x="90" y="247" text-anchor="middle" fill="#EF5350" font-family="monospace" font-size="13" font-weight="bold">Fire</text>
<text x="90" y="263" text-anchor="middle" fill="#EF5350" font-family="monospace" font-size="9">row 1</text>
<text x="90" y="357" text-anchor="middle" fill="#FDD835" font-family="monospace" font-size="13" font-weight="bold">Earth</text>
<text x="90" y="373" text-anchor="middle" fill="#FDD835" font-family="monospace" font-size="9">row 2</text>
<text x="90" y="467" text-anchor="middle" fill="#B0BEC5" font-family="monospace" font-size="13" font-weight="bold">Metal</text>
<text x="90" y="483" text-anchor="middle" fill="#B0BEC5" font-family="monospace" font-size="9">row 3</text>
<text x="90" y="577" text-anchor="middle" fill="#42A5F5" font-family="monospace" font-size="13" font-weight="bold">Water</text>
<text x="90" y="593" text-anchor="middle" fill="#42A5F5" font-family="monospace" font-size="9">row 4</text>
<text x="150" y="95" text-anchor="middle" fill="#888" font-family="monospace" font-size="11">col 0</text>
<text x="260" y="95" text-anchor="middle" fill="#888" font-family="monospace" font-size="11">col 1</text>
<text x="370" y="95" text-anchor="middle" fill="#888" font-family="monospace" font-size="11">col 2</text>
<text x="480" y="95" text-anchor="middle" fill="#888" font-family="monospace" font-size="11">col 3</text>
<text x="590" y="95" text-anchor="middle" fill="#888" font-family="monospace" font-size="11">col 4</text>
<text x="700" y="95" text-anchor="middle" fill="#888" font-family="monospace" font-size="11">col 5</text>
<text x="810" y="95" text-anchor="middle" fill="#888" font-family="monospace" font-size="11">col 6</text>
<text x="920" y="95" text-anchor="middle" fill="#888" font-family="monospace" font-size="11">col 7</text>
<rect x="120" y="700" width="860" height="115" fill="#111" rx="6" stroke="#333" stroke-width="1"/>
<text x="130" y="720" fill="#aaa" font-family="monospace" font-size="11" font-weight="bold">Legend</text>
<circle cx="140" cy="740" r="8" fill="#4CAF50" fill-opacity="0.8"/>
<text x="154" y="744" fill="#4CAF50" font-family="monospace" font-size="10">Wood — Delta 0.5-4Hz</text>
<circle cx="308" cy="740" r="8" fill="#EF5350" fill-opacity="0.8"/>
<text x="322" y="744" fill="#EF5350" font-family="monospace" font-size="10">Fire — Theta 4-8Hz</text>
<circle cx="476" cy="740" r="8" fill="#FDD835" fill-opacity="0.8"/>
<text x="490" y="744" fill="#FDD835" font-family="monospace" font-size="10">Earth — Alpha 8-13Hz</text>
<circle cx="644" cy="740" r="8" fill="#B0BEC5" fill-opacity="0.8"/>
<text x="658" y="744" fill="#B0BEC5" font-family="monospace" font-size="10">Metal — Beta 13-30Hz</text>
<circle cx="812" cy="740" r="8" fill="#42A5F5" fill-opacity="0.8"/>
<text x="826" y="744" fill="#42A5F5" font-family="monospace" font-size="10">Water — Gamma 30-100Hz</text>
<circle cx="140" cy="768" r="4" fill="#FFD740"/>
<text x="150" y="772" fill="#FFD740" font-family="monospace" font-size="10">D-pipe (Dense/ALU)</text>
<circle cx="305" cy="768" r="4" fill="#40C4FF"/>
<text x="315" y="772" fill="#40C4FF" font-family="monospace" font-size="10">S-pipe (Sparse/AGU)</text>
<circle cx="490" cy="768" r="4" fill="#E040FB"/>
<text x="500" y="772" fill="#E040FB" font-family="monospace" font-size="10">C-pipe (Coord/Route)</text>
<line x1="140" y1="798" x2="170" y2="798" stroke="#888" stroke-width="2"/>
<text x="176" y="802" fill="#888" font-family="monospace" font-size="10">N/S/E/W connection (solid)</text>
<line x1="400" y1="798" x2="430" y2="798" stroke="#888" stroke-width="1.5" stroke-dasharray="4,3"/>
<text x="436" y="802" fill="#888" font-family="monospace" font-size="10">Toroidal wrap (dashed)</text>
<text x="660" y="772" fill="#ccc" font-family="monospace" font-size="10">2×4 = 4 neighbors × 2 directions (axon out / dendrite in)</text>
<text x="660" y="788" fill="#666" font-family="monospace" font-size="10">= 8 directed wires per neuron · ticks show connection points</text>
<text x="1100" y="842" text-anchor="end" fill="#444" font-family="monospace" font-size="9">Lux 🔆 | logos-prime | 2026-02-19 | R23W20</text>
</svg>